<svg width="10" height="10" viewBox="0 0 10 10" fill="none" xmlns="http://www.w3.org/2000/svg">
<path d="M9.19998 0.806638C9.07543 0.681802 8.90633 0.611647 8.72998 0.611647C8.55364 0.611647 8.38454 0.681802 8.25998 0.806638L4.99998 4.05997L1.73998 0.799971C1.61543 0.675136 1.44633 0.60498 1.26998 0.60498C1.09364 0.60498 0.924535 0.675136 0.79998 0.799971C0.53998 1.05997 0.53998 1.47997 0.79998 1.73997L4.05998 4.99997L0.79998 8.25997C0.53998 8.51997 0.53998 8.93997 0.79998 9.19997C1.05998 9.45997 1.47998 9.45997 1.73998 9.19997L4.99998 5.93997L8.25998 9.19997C8.51998 9.45997 8.93998 9.45997 9.19998 9.19997C9.45998 8.93997 9.45998 8.51997 9.19998 8.25997L5.93998 4.99997L9.19998 1.73997C9.45331 1.48664 9.45331 1.05997 9.19998 0.806638Z" fill="#8F97A1"/>
</svg>
