<svg width="10" height="18" viewBox="0 0 10 18" fill="none" xmlns="http://www.w3.org/2000/svg">
<path d="M3.33333 14.8334H5.83333V17.3334H3.33333V14.8334ZM5 0.666748C9.45833 0.850081 11.4 5.35008 8.75 8.72508C8.05833 9.55842 6.94167 10.1084 6.39167 10.8084C5.83333 11.5001 5.83333 12.3334 5.83333 13.1667H3.33333C3.33333 11.7751 3.33333 10.6001 3.89167 9.76675C4.44167 8.93342 5.55833 8.44175 6.25 7.89175C8.26667 6.02508 7.76667 3.38341 5 3.16675C4.33696 3.16675 3.70107 3.43014 3.23223 3.89898C2.76339 4.36782 2.5 5.00371 2.5 5.66675H0C0 4.34067 0.526784 3.0689 1.46447 2.13121C2.40215 1.19353 3.67392 0.666748 5 0.666748Z" fill="white"/>
</svg>
